name Visual3d_SIMM_input.mot
datacolumns 42
datarows 27
range 0.730000 0.990000
endheader
time	pelvis_tx	pelvis_ty	pelvis_tz	pelvis_tilt	pelvis_list	pelvis_rotation	hip_flexion_r	hip_adduction_r	hip_rotation_r	knee_angle_r	ankle_angle_r	subtalar_angle_r	mtp_angle_r	hip_flexion_l	hip_adduction_l	hip_rotation_l	knee_angle_l	ankle_angle_l	subtalar_angle_l	mtp_angle_l	lumbar_extension	lumbar_bending	lumbar_rotation	ground_force_vx	ground_force_vy	ground_force_vz	ground_force_px	ground_force_py	ground_force_pz	ground_force_vx	ground_force_vy	ground_force_vz	ground_force_px	ground_force_py	ground_force_pz	ground_torque_x	ground_torque_y	ground_torque_z	ground_torque_x	ground_torque_y	ground_torque_z
0.730000	0.146006	0.687481	0.223308	-10.212346	5.198586	-12.794074	-9.985334	-4.871956	-12.782641	-21.182570	8.291818	0.000000	0.000000	39.291490	2.193754	-16.579536	-18.189000	9.170689	-0.000000	0.000000	14.493883	-3.266428	10.310445	62.247036	186.861374	6.142365	-0.178379	-0.002248	0.203174	-16.750311	125.360580	-7.679689	0.292802	-0.002775	0.221164	-0.001408	1.548410	-0.003466	-0.000048	-0.006899	0.000123
0.740000	0.162394	0.686659	0.223849	-9.793238	5.849862	-12.969358	-9.264338	-6.603739	-13.079644	-24.756639	4.968720	0.000000	0.000000	38.989848	3.415395	-14.757880	-20.227218	8.337848	-0.000000	0.000000	14.414411	-3.963852	10.716831	52.468109	144.581238	6.758516	-0.176992	-0.003456	0.202188	-26.831903	167.597290	-8.628615	0.297802	-0.003784	0.221653	-0.001229	1.351821	-0.003026	-0.000223	-0.032189	0.000573
0.750000	0.178655	0.685952	0.224489	-9.334971	6.537799	-13.225122	-8.408827	-8.383712	-13.187855	-28.538284	1.389496	0.000000	0.000000	38.667856	4.640658	-13.137929	-22.296857	7.601639	-0.000000	0.000000	14.296238	-4.700907	11.184528	41.019276	103.828117	6.543423	-0.176640	-0.004080	0.200511	-38.133247	210.556213	-8.899971	0.303248	-0.004527	0.221551	-0.001030	1.132577	-0.002535	-0.000287	-0.041482	0.000738
0.760000	0.194651	0.685431	0.225287	-8.846397	7.248350	-13.574731	-7.332404	-10.158511	-13.021642	-32.494133	-2.402580	0.000000	0.000000	38.292933	5.825263	-11.844660	-24.332392	7.038196	-0.000000	0.000000	14.134788	-5.462496	11.706389	29.310638	67.964478	5.614762	-0.176784	-0.004267	0.198210	-49.074001	253.064423	-8.788317	0.308916	-0.004955	0.220898	-0.000826	0.908632	-0.002034	-0.000138	-0.019894	0.000354
0.770000	0.210267	0.685132	0.226260	-8.349043	7.966897	-14.019189	-5.961082	-11.871004	-12.522226	-36.587718	-6.297335	0.000000	0.000000	37.844784	6.939331	-10.935924	-26.259618	6.715965	-0.000000	0.000000	13.937191	-6.228091	12.265442	18.783146	39.308125	4.304755	-0.177026	-0.004102	0.195271	-58.374813	293.522705	-8.771770	0.314540	-0.005076	0.219892	-0.000639	0.703510	-0.001575	0.000277	0.039930	-0.000710
0.780000	0.225422	0.685070	0.227398	-7.871536	8.675534	-14.545202	-4.247402	-13.458889	-11.668308	-40.772592	-10.121240	0.000000	0.000000	37.310660	7.963575	-10.410105	-28.002980	6.681436	-0.000000	0.000000	13.718087	-6.972098	12.835659	0.000000	0.000000	0.000000	0.000000	0.000000	0.000000	-65.221909	329.809357	-9.078881	0.319915	-0.004953	0.218783	0.000000	0.000000	0.000000	0.000898	0.129588	-0.002305
0.790000	0.240079	0.685253	0.228667	-7.446576	9.351209	-15.124974	-2.175463	-14.856099	-10.481687	-44.990012	-13.658884	0.000000	0.000000	36.684072	8.884454	-10.219184	-29.494499	6.948845	-0.000000	0.000000	13.497727	-7.663694	13.383597	0.000000	0.000000	0.000000	0.000000	0.000000	0.000000	-69.123314	359.884735	-9.507133	0.324893	-0.004677	0.217787	0.000000	0.000000	0.000000	0.001589	0.229478	-0.004082
0.800000	0.254247	0.685690	0.230018	-7.110508	9.966347	-15.718419	0.242693	-15.998786	-9.027500	-49.171317	-16.683693	0.000000	0.000000	35.966424	9.690948	-10.281722	-30.680346	7.497050	-0.000000	0.000000	13.302365	-8.267625	13.869882	0.000000	0.000000	0.000000	0.000000	0.000000	0.000000	-69.991844	381.896149	-9.836686	0.329421	-0.004338	0.217036	0.000000	0.000000	0.000000	0.002252	0.325143	-0.005784
0.810000	0.267978	0.686391	0.231396	-6.895716	10.491098	-16.277380	2.966019	-16.835549	-7.409739	-53.240785	-18.990566	0.000000	0.000000	35.160465	10.375316	-10.495530	-31.522949	8.273850	-0.000000	0.000000	13.157472	-8.748335	14.250537	0.000000	0.000000	0.000000	0.000000	0.000000	0.000000	-68.095528	394.697479	-9.969431	0.333553	-0.004004	0.216555	0.000000	0.000000	0.000000	0.002809	0.405612	-0.007215
0.820000	0.281359	0.687379	0.232740	-6.819674	10.896111	-16.750408	5.921122	-17.337576	-5.762054	-57.117583	-20.424813	0.000000	0.000000	34.259969	10.935538	-10.750093	-32.000256	9.205857	-0.000000	0.000000	13.077526	-9.075643	14.478522	0.000000	0.000000	0.000000	0.000000	0.000000	0.000000	-63.961643	398.004059	-9.803475	0.337426	-0.003715	0.216270	0.000000	0.000000	0.000000	0.003188	0.460333	-0.008189
0.830000	0.294502	0.688682	0.233992	-6.882278	11.154123	-17.086964	9.008913	-17.502162	-4.233414	-60.718865	-20.902942	0.000000	0.000000	33.248295	11.373749	-10.938849	-32.105813	10.211230	-0.000000	0.000000	13.063168	-9.227201	14.506584	0.000000	0.000000	0.000000	0.000000	0.000000	0.000000	-58.227776	392.236389	-9.220743	0.341221	-0.003490	0.216058	0.000000	0.000000	0.000000	0.003361	0.485179	-0.008631
0.840000	0.307522	0.690324	0.235103	-7.068458	11.240670	-17.241890	12.117829	-17.350171	-2.971029	-63.964271	-20.422962	0.000000	0.000000	32.102535	11.691906	-10.971002	-31.848656	11.212011	-0.000000	0.000000	13.103060	-9.188722	14.293059	0.000000	0.000000	0.000000	0.000000	0.000000	0.000000	-51.547276	378.412567	-8.143773	0.345132	-0.003333	0.215788	0.000000	0.000000	0.000000	0.003335	0.481553	-0.008566
0.850000	0.320525	0.692319	0.236038	-7.350125	11.136122	-17.181513	15.136809	-16.921483	-2.101726	-66.781191	-19.063207	0.000000	0.000000	30.796397	11.888947	-10.782805	-31.250305	12.143152	-0.000000	0.000000	13.175788	-8.955288	13.809923	0.000000	0.000000	0.000000	0.000000	0.000000	0.000000	-44.493782	358.034698	-6.552095	0.349328	-0.003238	0.215359	0.000000	0.000000	0.000000	0.003145	0.454015	-0.008076
0.860000	0.333590	0.694659	0.236785	-7.691672	10.829100	-16.889946	17.970774	-16.267554	-1.712528	-69.110053	-16.969687	0.000000	0.000000	29.306812	11.959205	-10.346312	-30.340930	12.957484	-0.000000	0.000000	13.255741	-8.532305	13.050573	0.000000	0.000000	0.000000	0.000000	0.000000	0.000000	-37.479206	333.003967	-4.487970	0.353918	-0.003196	0.214710	0.000000	0.000000	0.000000	0.002841	0.410100	-0.007295
0.870000	0.346762	0.697306	0.237357	-8.059855	10.319858	-16.372225	20.556834	-15.442195	-1.837088	-70.909098	-14.334984	0.000000	0.000000	27.625120	11.892153	-9.672270	-29.157323	13.627103	-0.000000	0.000000	13.322723	-7.934806	12.034517	0.000000	0.000000	0.000000	0.000000	0.000000	0.000000	-30.778385	305.392792	-2.065413	0.358935	-0.003192	0.213836	0.000000	0.000000	0.000000	0.002478	0.357702	-0.006363
0.880000	0.360049	0.700185	0.237787	-8.430396	9.621838	-15.652223	22.871131	-14.495594	-2.455612	-72.156980	-11.373738	0.000000	0.000000	25.763890	11.675526	-8.805186	-27.742277	14.142047	-0.000000	0.000000	13.367339	-7.186404	10.805814	0.000000	0.000000	0.000000	0.000000	0.000000	0.000000	-24.542965	277.172638	0.524989	0.364335	-0.003209	0.212778	0.000000	0.000000	0.000000	0.002096	0.302611	-0.005383
0.890000	0.373428	0.703193	0.238121	-8.788756	8.760458	-14.765615	24.923316	-13.472698	-3.507367	-72.852143	-8.297925	0.000000	0.000000	23.755644	11.301364	-7.810147	-26.144513	14.507363	-0.000000	0.000000	13.389741	-6.317849	9.423380	0.000000	0.000000	0.000000	0.000000	0.000000	0.000000	-18.815273	250.028748	3.053674	0.369998	-0.003227	0.211594	0.000000	0.000000	0.000000	0.001714	0.247417	-0.004401
0.900000	0.386856	0.706206	0.238403	-9.128406	7.771160	-13.751797	26.745798	-12.414066	-4.905293	-73.009832	-5.293461	0.000000	0.000000	21.647561	10.772927	-6.756127	-24.417858	14.739116	-0.000000	0.000000	13.395895	-5.366015	7.947472	0.000000	0.000000	0.000000	0.000000	0.000000	0.000000	-13.589419	225.274567	5.316453	0.375750	-0.003225	0.210357	0.000000	0.000000	0.000000	0.001327	0.191533	-0.003407
0.910000	0.400278	0.709090	0.238672	-9.448290	6.699333	-12.650398	28.384480	-11.357906	-6.544075	-72.658596	-2.502440	0.000000	0.000000	19.495013	10.110425	-5.704809	-22.618523	14.859852	-0.000000	0.000000	13.394571	-4.374793	6.433342	0.000000	0.000000	0.000000	0.000000	0.000000	0.000000	-8.870756	203.819351	7.172387	0.381405	-0.003184	0.209149	0.000000	0.000000	0.000000	0.000911	0.131550	-0.002340
0.920000	0.413640	0.711715	0.238965	-9.750645	5.599248	-11.500553	29.891237	-10.341154	-8.306030	-71.835804	-0.015624	-0.000000	0.000000	17.355565	9.351986	-4.706073	-20.802521	14.895225	-0.000000	0.000000	13.395503	-3.394518	4.932541	0.000000	0.000000	0.000000	0.000000	0.000000	0.000000	-4.688509	186.203079	8.550190	0.386810	-0.003087	0.208062	0.000000	0.000000	0.000000	0.000435	0.062757	-0.001116
0.930000	0.426890	0.713962	0.239311	-10.039794	4.527235	-10.337291	31.314911	-9.397037	-10.073624	-70.580709	2.125129	-0.000000	0.000000	15.284010	8.547218	-3.794272	-19.025779	14.873280	-0.000000	0.000000	13.407515	-2.475677	3.490056	0.000000	0.000000	0.000000	0.000000	0.000000	0.000000	-1.072045	172.705139	9.448106	0.391877	-0.002924	0.207196	0.000000	0.000000	0.000000	-0.000124	-0.017891	0.000318
0.940000	0.439994	0.715737	0.239728	-10.320960	3.533274	-9.186748	32.692622	-8.552865	-11.744987	-68.928056	3.917797	-0.000000	0.000000	13.327625	7.748479	-2.984276	-17.343828	14.824166	-0.000000	0.000000	13.436550	-1.661256	2.136391	0.000000	0.000000	0.000000	0.000000	0.000000	0.000000	1.981347	163.443298	9.922132	0.396574	-0.002696	0.206641	0.000000	0.000000	0.000000	-0.000768	-0.110824	0.001971
0.950000	0.452932	0.716975	0.240215	-10.598928	2.656038	-8.063792	34.045013	-7.830933	-13.245477	-66.904449	5.387879	-0.000000	0.000000	11.522225	7.004412	-2.270336	-15.808256	14.778361	-0.000000	0.000000	13.485112	-0.981938	0.880911	0.000000	0.000000	0.000000	0.000000	0.000000	0.000000	4.521461	158.433853	10.064935	0.400904	-0.002417	0.206460	0.000000	0.000000	0.000000	-0.001477	-0.213252	0.003793
0.960000	0.465710	0.717643	0.240758	-10.877202	1.915255	-6.970805	35.372723	-7.244666	-14.537701	-64.524879	6.575788	-0.000000	0.000000	9.890373	6.348867	-1.629551	-14.464720	14.766729	-0.000000	0.000000	13.552641	-0.448617	-0.292034	0.000000	0.000000	0.000000	0.000000	0.000000	0.000000	6.642781	157.609299	9.975380	0.404912	-0.002114	0.206679	0.000000	0.000000	0.000000	-0.002215	-0.319776	0.005688
0.970000	0.478354	0.717748	0.241329	-11.155940	1.303075	-5.898741	36.652639	-6.789757	-15.627486	-61.790508	7.526834	-0.000000	0.000000	8.439447	5.787588	-1.030106	-13.352549	14.821845	-0.000000	0.000000	13.634243	-0.045189	-1.414272	0.000000	0.000000	0.000000	0.000000	0.000000	0.000000	8.478674	160.844131	9.719965	0.408655	-0.001832	0.207284	0.000000	0.000000	0.000000	-0.002947	-0.425475	0.007569
0.980000	0.490915	0.717332	0.241907	-11.429035	0.788476	-4.833830	37.841065	-6.444335	-16.556464	-58.695135	8.286128	-0.000000	0.000000	7.158551	5.299190	-0.441559	-12.499061	14.973802	-0.000000	0.000000	13.719304	0.265807	-2.510385	0.000000	0.000000	0.000000	0.000000	0.000000	0.000000	10.176361	167.948502	9.292032	0.412180	-0.001618	0.208229	0.000000	0.000000	0.000000	-0.003675	-0.530591	0.009438
0.990000	0.503453	0.716461	0.242482	-11.685119	0.333759	-3.764715	38.887067	-6.180899	-17.386306	-55.239169	8.897335	-0.000000	0.000000	6.020559	4.850588	0.158848	-11.912289	15.241577	-0.000000	0.000000	13.794265	0.526503	-3.586551	0.000000	0.000000	0.000000	0.000000	0.000000	0.000000	11.884836	178.614655	8.599910	0.415505	-0.001514	0.209447	0.000000	0.000000	0.000000	-0.004458	-0.643572	0.011448
